<svg width="143" height="70" viewBox="0 0 143 70" fill="none" xmlns="http://www.w3.org/2000/svg">
<g clip-path="url(#clip0_4728_31833)">
<path d="M71.6188 0L51.1657 15.4793C50.8554 15.7141 50.5789 15.9905 50.3442 16.3009L35.1309 36.5323L53.0123 22.9386L82.4322 47.4291L58.0538 17.9075L71.6188 0Z" fill="#FCBB17"/>
<path d="M71.62 0L92.0731 15.4793C92.3834 15.7141 92.6599 15.9905 92.8947 16.3009L108.108 36.5323L90.2265 22.9386L60.8066 47.4291L85.185 17.9075L71.62 0Z" fill="#FCBB17"/>
<path d="M71.6166 4.91357L61.7734 17.9021H65.4431L71.6166 9.74908L73.6483 12.4302H77.3154L71.6192 4.91357H71.6166Z" fill="#FCBB17"/>
<path d="M81.4607 17.9022L71.6175 29.8215L64.1348 20.7634H67.9244L71.6175 25.2389L77.6789 17.9022H67.5306L69.4006 15.521H79.6558L81.4607 17.9022Z" fill="#FCBB17"/>
<path d="M13.4685 51.3389L11.4498 54.0331H7.85052V61.6958H4.73117V54.0331H0L2.0187 51.3389H13.4685Z" fill="#231F20"/>
<path d="M26.6116 59.0303L24.6085 61.6932H14.9062V51.3389H26.5803L24.5616 54.0331H18.0386V55.272H26.0222L24.2304 57.6245H18.0386V59.0329H26.609L26.6116 59.0303Z" fill="#231F20"/>
<path d="M31.9107 61.6928L33.7938 59.0299H36.3237C36.9262 59.0299 37.633 59.0299 38.1155 59.0612C37.8442 58.6908 37.4217 58.0544 37.0905 57.5589L35.283 54.8203L30.5519 61.6928H26.8613L33.3243 52.3296C33.7468 51.7271 34.365 51.1689 35.343 51.1689C36.3211 51.1689 36.8949 51.6801 37.3304 52.3296L43.6265 61.6928H31.9055H31.9107Z" fill="#231F20"/>
<path d="M52.3828 55.1909C53.2722 56.7845 53.6634 57.5591 54.0103 58.2867C54.3415 57.5591 54.7327 56.8001 55.6221 55.2065L57.234 52.2645C57.5965 51.5995 58.139 51.1665 58.9501 51.1665C59.7613 51.1665 60.4263 51.6308 60.6976 52.5906L63.2431 61.6904H60.1394L59.1901 58.0833C58.8745 56.907 58.6632 56.0724 58.4963 55.2352C58.1651 55.9629 57.7895 56.7532 57.0957 58.099L55.7395 60.6993C55.2127 61.7217 54.6988 61.8599 53.9477 61.8599C53.1966 61.8599 52.6827 61.7217 52.1559 60.6993L50.7997 58.0833C50.0616 56.6593 49.699 55.9316 49.3834 55.2352C49.2322 56.0568 49.0079 56.9227 48.7053 58.0833L47.756 61.6904H44.6992L47.3048 52.5906C47.576 51.6308 48.2828 51.1665 49.0679 51.1665C49.8529 51.1665 50.4084 51.5838 50.771 52.2645L52.3828 55.1909Z" fill="#231F20"/>
<path d="M83.2618 51.3385L80.0825 54.3249C78.6819 55.6237 78.2151 56.0436 77.8395 56.3358C78.202 56.5835 78.6532 57.0165 80.2807 58.5788L83.5044 61.6903H79.1044L75.6695 58.271L72.1303 61.6903H68.2598L71.5434 58.5788C73.0796 57.1234 73.5178 56.7531 73.8934 56.4583C73.5178 56.1793 73.124 55.8246 71.5434 54.3066L68.4554 51.3359H72.7797L75.9877 54.5544L79.227 51.3359H83.2644L83.2618 51.3385Z" fill="#231F20"/>
<path d="M100.828 51.3389L98.8091 54.0331H95.2099V61.6958H92.0905V54.0331H87.3594L89.3781 51.3389H100.828Z" fill="#231F20"/>
<path d="M113.791 59.0303L111.788 61.6932H102.086V51.3389H113.76L111.741 54.0331H105.218V55.272H113.202L111.41 57.6245H105.218V59.0329H113.789L113.791 59.0303Z" fill="#231F20"/>
<path d="M128.211 59.0303L126.208 61.6932H121.146C117.651 61.6932 115.074 59.4189 115.074 56.4143C115.074 53.4097 117.651 51.3389 121.146 51.3389H128.211L126.208 54.0331H121.146C119.459 54.0331 118.194 55.0711 118.194 56.5552C118.194 58.0392 119.443 59.0329 121.146 59.0329H128.211V59.0303Z" fill="#231F20"/>
<path d="M142.058 61.6932H138.955V57.7001H132.959V61.6932H129.826V51.3389H132.959V55.0059H138.955V51.3389H142.058V61.6932Z" fill="#231F20"/>
<path d="M27.862 69.687L28.1254 69.228C28.2845 69.3297 28.4332 69.4001 28.5714 69.4418C28.7096 69.4836 28.8609 69.5044 29.0278 69.5044C29.2287 69.5044 29.3851 69.4601 29.4999 69.374C29.6147 69.288 29.672 69.1628 29.672 69.0037C29.672 68.8576 29.6251 68.7429 29.5286 68.6568C29.4321 68.5707 29.2704 68.4951 29.0409 68.4247C28.6809 68.3203 28.4175 68.1899 28.248 68.0334C28.0785 67.877 27.995 67.6631 27.995 67.3945C27.995 67.1049 28.1045 66.8624 28.321 66.6694C28.5375 66.4764 28.8348 66.3799 29.2104 66.3799C29.3747 66.3799 29.5364 66.3981 29.6955 66.4373C29.8546 66.4764 30.0111 66.5338 30.165 66.612L29.9328 67.0815C29.8024 67.0111 29.6746 66.9615 29.5521 66.9276C29.4295 66.8937 29.3043 66.8806 29.1791 66.8806C28.9939 66.8806 28.8505 66.9198 28.7461 67.0006C28.6418 67.0815 28.5897 67.1936 28.5897 67.3423C28.5897 67.4727 28.6366 67.5744 28.7331 67.6501C28.8296 67.7257 28.9965 67.7987 29.2313 67.8717C29.599 67.9787 29.8624 68.1117 30.0215 68.2786C30.1806 68.4455 30.2615 68.6672 30.2615 68.9541C30.2615 69.2619 30.1519 69.5149 29.9328 69.7105C29.7138 69.9061 29.4008 70.0052 28.9965 70.0052C28.7931 70.0052 28.5949 69.9791 28.4019 69.927C28.2089 69.8748 28.0263 69.7966 27.8594 69.6922L27.862 69.687Z" fill="#231F20"/>
<path d="M39.7949 70.0002C39.2941 70.0002 38.8898 69.8358 38.5847 69.5098C38.2795 69.1838 38.123 68.7587 38.123 68.2318C38.123 67.6737 38.2795 67.2251 38.5925 66.886C38.9055 66.547 39.3254 66.3774 39.8522 66.3774C40.3452 66.3774 40.7416 66.5418 41.0442 66.8678C41.3467 67.1938 41.498 67.6241 41.498 68.1536C41.498 68.7169 41.3415 69.1629 41.0311 69.4968C40.7208 69.8306 40.3087 69.9975 39.7975 69.9975L39.7949 70.0002ZM39.8027 69.4785C40.1339 69.4785 40.3947 69.3664 40.5851 69.1421C40.7755 68.9178 40.872 68.6048 40.872 68.2031C40.872 67.8015 40.7781 67.4676 40.593 67.2407C40.4078 67.0138 40.1522 66.8991 39.8288 66.8991C39.5054 66.8991 39.2446 67.0164 39.0463 67.2538C38.8481 67.4911 38.7516 67.8041 38.7516 68.1901C38.7516 68.5761 38.8481 68.8943 39.0437 69.1264C39.2393 69.3586 39.4923 69.4759 39.8053 69.4759L39.8027 69.4785Z" fill="#231F20"/>
<path d="M51.5368 69.9429H49.5859V66.4375H50.1806V69.4421H51.5368V69.9429Z" fill="#231F20"/>
<path d="M62.1064 68.4743C62.1064 68.9855 61.989 69.3663 61.7569 69.6193C61.5248 69.8723 61.1727 70.0001 60.7058 70.0001C60.239 70.0001 59.9182 69.8775 59.6939 69.6323C59.4696 69.3871 59.3574 69.0168 59.3574 68.5212V66.4399H59.9521V68.516C59.9521 68.8368 60.0173 69.0794 60.1503 69.2385C60.2833 69.3976 60.4789 69.481 60.745 69.481C61.011 69.481 61.1962 69.4028 61.324 69.2489C61.4518 69.095 61.517 68.8603 61.517 68.5473V66.4399H62.1116V68.4769L62.1064 68.4743Z" fill="#231F20"/>
<path d="M72.6387 66.9409H71.632V69.9429H71.0373V66.9409H70.0332V66.4375H72.6387V66.9409Z" fill="#231F20"/>
<path d="M81.2086 69.9429H80.6113V66.4375H81.2086V69.9429Z" fill="#231F20"/>
<path d="M90.9765 70.0002C90.4757 70.0002 90.0715 69.8358 89.7663 69.5098C89.4612 69.1838 89.3047 68.7587 89.3047 68.2318C89.3047 67.6737 89.4612 67.2251 89.7742 66.886C90.0871 66.547 90.507 66.3774 91.0339 66.3774C91.5268 66.3774 91.9233 66.5418 92.2258 66.8678C92.5283 67.1938 92.6796 67.6241 92.6796 68.1536C92.6796 68.7169 92.5231 69.1629 92.2128 69.4968C91.9024 69.8306 91.4903 69.9975 90.9791 69.9975L90.9765 70.0002ZM90.9843 69.4785C91.3156 69.4785 91.5764 69.3664 91.7668 69.1421C91.9572 68.9178 92.0537 68.6048 92.0537 68.2031C92.0537 67.8015 91.9598 67.4676 91.7746 67.2407C91.5894 67.0138 91.3338 66.8991 91.0104 66.8991C90.687 66.8991 90.4262 67.0164 90.228 67.2538C90.0298 67.4911 89.9333 67.8041 89.9333 68.1901C89.9333 68.5761 90.0298 68.8943 90.2254 69.1264C90.421 69.3586 90.674 69.4759 90.9869 69.4759L90.9843 69.4785Z" fill="#231F20"/>
<path d="M103.751 69.9427H103.106L101.479 67.4389C101.448 67.3893 101.419 67.3424 101.393 67.3006C101.367 67.2589 101.349 67.2198 101.336 67.1859H101.322C101.328 67.2354 101.333 67.3032 101.338 67.3893C101.343 67.4754 101.343 67.5823 101.343 67.7075V69.9453H100.77V66.4399H101.458L103.033 68.889C103.067 68.9412 103.099 68.9881 103.125 69.0324C103.151 69.0768 103.174 69.1159 103.19 69.1498H103.2C103.195 69.1029 103.19 69.0377 103.185 68.9568C103.179 68.876 103.179 68.7742 103.179 68.6516V66.4399H103.751V69.9453V69.9427Z" fill="#231F20"/>
<path d="M111.79 69.687L112.053 69.228C112.212 69.3297 112.361 69.4001 112.499 69.4418C112.637 69.4836 112.789 69.5044 112.956 69.5044C113.156 69.5044 113.313 69.4601 113.428 69.374C113.542 69.288 113.6 69.1628 113.6 69.0037C113.6 68.8576 113.553 68.7429 113.456 68.6568C113.36 68.5707 113.198 68.4951 112.969 68.4247C112.609 68.3203 112.345 68.1899 112.176 68.0334C112.006 67.877 111.923 67.6631 111.923 67.3945C111.923 67.1049 112.032 66.8624 112.249 66.6694C112.465 66.4764 112.763 66.3799 113.138 66.3799C113.302 66.3799 113.464 66.3981 113.623 66.4373C113.782 66.4764 113.939 66.5338 114.093 66.612L113.861 67.0815C113.73 67.0111 113.602 66.9615 113.48 66.9276C113.357 66.8937 113.232 66.8806 113.107 66.8806C112.922 66.8806 112.778 66.9198 112.674 67.0006C112.57 67.0815 112.517 67.1936 112.517 67.3423C112.517 67.4727 112.564 67.5744 112.661 67.6501C112.757 67.7257 112.924 67.7987 113.159 67.8717C113.527 67.9787 113.79 68.1117 113.949 68.2786C114.108 68.4455 114.189 68.6672 114.189 68.9541C114.189 69.2619 114.08 69.5149 113.861 69.7105C113.642 69.9061 113.329 70.0052 112.924 70.0052C112.721 70.0052 112.523 69.9791 112.33 69.927C112.137 69.8748 111.954 69.7966 111.787 69.6922L111.79 69.687Z" fill="#231F20"/>
</g>
<defs>
<clipPath id="clip0_4728_31833">
<rect width="142.058" height="70" fill="white"/>
</clipPath>
</defs>
</svg>
